<?xml version="1.0" encoding="UTF-8"?>
<svg width="451px" height="159px" viewBox="0 0 451 159" version="1.1" xmlns="http://www.w3.org/2000/svg" xmlns:xlink="http://www.w3.org/1999/xlink">
    <title>light logo</title>
    <g id="Page-1" stroke="none" stroke-width="1" fill="none" fill-rule="evenodd">
        <g id="Artboard" transform="translate(-1188.000000, -488.000000)">
            <g id="light-logo" transform="translate(1181.000000, 471.000000)">
                <text id="dunk" font-family="Futura-MediumItalic, Futura" font-size="168" font-style="italic" font-weight="400" letter-spacing="-9.689757" fill="#FFFFFF">
                    <tspan x="0" y="174">dunk</tspan>
                </text>
                <g id="Group" transform="translate(352.000000, 17.000000)" fill="#4E2CE7" fill-rule="nonzero">
                    <path d="M77.7680961,17.9074858 C78.6539197,17.9588826 79.5732496,18 80.500956,18 C85.5604115,18 88.532004,16.7479744 90,13.9540452 C83.5981972,7.84399565 75.7158336,3.41359294 67,1 C71.4018938,5.6318781 75.0875899,11.4109324 77.7680961,17.9074858 Z" id="Path"></path>
                    <path d="M81.0896932,31.3268698 C88.3154996,31.5316151 95.8853921,32.1888474 103,35 C100.889326,29.1238107 97.7820614,23.7246778 93.7453449,18.9193063 C93.4851823,18.6080935 93.2187254,18.3009756 92.9459743,18 C90.4471545,21.4110562 86.0076056,23.2025774 80.0175715,23.2025774 C79.6755835,23.2025774 79.3377918,23.1943876 79,23.1841503 L79.0587464,23.3622787 L79.0335694,23.3581838 C79.8560189,25.9174997 80.5399948,28.5853306 81.0896932,31.3268698 Z" id="Path"></path>
                    <path d="M17.7788237,92 C23.4617306,88.4286493 27.9489917,85.2480105 31.8661163,82.0144627 C36.9932427,77.81838 41.5584361,72.820524 45.9718665,67.9854646 L47.5284621,66.28424 C55.4037283,57.6438097 65.1739805,46.9236527 78,46.6061994 C77.9220677,42.9168211 77.6411011,39.3576801 77.1694055,36 C59.5546499,37.1823104 45.4919675,39.2254079 32.9940841,42.4263963 C25.2193095,44.4186199 19.0380459,46.6102693 13.5479189,49.3269378 C8.83711514,51.6589992 3.07422502,54.9515607 0,59.8619136 C1.54223963,70.3114212 6.29611127,80.1016025 13.5274104,87.8954904 C13.5253596,87.8954904 14.9548024,89.643519 17.7788237,92 Z" id="Path"></path>
                    <path d="M0.0131538757,53 C3.36942236,49.730791 7.87113294,46.883154 13.957577,44.1571242 C19.9557523,41.4716301 26.5943898,39.2624312 34.2491452,37.4160274 C46.8551665,34.3839526 60.4649892,32.4443166 77,31.33161 C76.4190679,28.5366694 75.680073,25.8248271 74.8014902,23.2508064 C73.8797993,23.378494 72.9108949,23.4413245 71.9194101,23.4413245 C67.6660839,23.4413245 63.3655442,22.2982161 59.6726224,21.228072 C57.1620926,20.4943748 54.700829,19.5924541 52.3196232,18.714855 C50.1642214,17.9203541 47.9328674,17.1035585 45.7076717,16.4286382 C34.8711326,13.1574024 23.7040986,13.1857774 14.140273,16.5441651 C5.76910302,25.4883803 0.789098517,37.0451252 0.078842311,49.1693708 L0.0850006018,49.1774779 L0.0521563842,49.6517463 C0.000837294124,50.7421582 -0.0135320511,51.8589184 0.0131538757,53 Z" id="Path"></path>
                    <path d="M57.3404613,0.236854645 C55.682124,0.0809759471 54.0013215,-4.54747351e-13 52.334815,-4.54747351e-13 C40.9878664,-4.54747351e-13 30.0085296,3.57913686 21,10.1483106 C23.5508169,9.76569922 26.1649447,9.57338135 28.8097069,9.57338135 C34.475012,9.57338135 40.2403892,10.4418484 45.9404133,12.1423433 C48.2686209,12.8387364 50.5661941,13.6930327 52.7841182,14.5129141 C54.9591543,15.3166004 57.2056704,16.1567259 59.456271,16.8308506 C63.4938731,18.041441 67.9174676,19.2338118 72,18.960518 C69.3327727,12.8549316 64.7355839,5.10148467 57.3404613,0.236854645 Z" id="Path"></path>
                    <polygon id="Path" points="105.027 43.996 104.973 44.004 105.019 43.998"></polygon>
                    <path d="M105.412151,44.536587 L105.407986,44.536587 L105.243493,43.4973325 L105.233082,43.425871 L105.228918,43.425871 C105.093575,42.6418363 104.933247,41.8578015 104.758343,41.079892 C98.5554971,37.0086281 90.4870087,36.2797207 82,36 C82.4664107,39.4179016 82.7391776,43.0256866 82.8183009,46.7580188 C89.0107356,47.0397813 94.7825678,49.7859448 98.4222369,54.216558 C101.149907,57.5405388 102.975988,61.8221037 103.879658,67 C106.024315,59.7415531 106.555273,52.0747547 105.412151,44.536587 Z" id="Path"></path>
                    <path d="M98.521579,80.2719845 L98.5319716,80.20425 L98.8603793,79.721898 C99.2573784,79.0466052 99.6169639,78.4103111 99.9619998,77.774017 C100.223894,69.8531815 99.1368237,64.2065843 96.5532118,60.0111482 C93.5642866,55.1588924 88.8439466,52.3427778 83.1778757,52 C83.1342266,56.1153862 82.7580128,60.2800338 82.3901131,64.3194752 C81.8725593,70.0810158 81.1222103,75.0810561 80.0933383,79.6767417 C77.9711598,89.1677869 74.6579842,96.8341047 70,103 C81.9619361,98.8722985 92.0033111,90.9001489 98.521579,80.2719845 Z" id="Path"></path>
                    <path d="M59.5232469,105.539831 C60.1705867,105.453549 60.8220107,105.350833 61.4673085,105.241954 C67.5567954,99.6685688 71.9738176,91.4471582 74.591766,80.8036978 C75.7026584,76.3026706 76.5154068,71.407213 77.072895,65.8256106 C77.5262371,61.3553983 77.9448638,56.6140151 78,52 C67.1442949,52.3759416 58.4491121,62.1093358 51.428436,69.9568592 L49.8805382,71.6824926 C45.312402,76.7505136 40.5890676,81.9890436 35.2081829,86.5270486 C31.3772381,89.7502853 27.0459833,92.903675 22,96.1412919 C30.8381286,102.509701 41.652992,106 52.6353061,106 C54.9408161,106 57.2585786,105.845926 59.5232469,105.539831 Z" id="Path"></path>
                </g>
            </g>
        </g>
    </g>
</svg>